<?xml version="1.0" encoding="UTF-8" standalone="no"?>
<!DOCTYPE svg PUBLIC "-//W3C//DTD SVG 1.1//EN"
 "http://www.w3.org/Graphics/SVG/1.1/DTD/svg11.dtd">
<!-- Generated by graphviz version 3.0.0 (20220413.0242)
 -->
<!-- Title: name Pages: 1 -->
<svg width="666pt" height="239pt"
 viewBox="0.00 0.00 665.50 239.00" xmlns="http://www.w3.org/2000/svg" xmlns:xlink="http://www.w3.org/1999/xlink">
<g id="graph0" class="graph" transform="scale(1 1) rotate(0) translate(4 235)">
<title>name</title>
<!-- directors -->
<g id="node1" class="node">
<title>directors</title>
<polygon fill="Lavender" stroke="transparent" points="99,-70.5 99,-93.5 240,-93.5 240,-70.5 99,-70.5"/>
<polygon fill="none" stroke="black" points="99,-70.5 99,-93.5 240,-93.5 240,-70.5 99,-70.5"/>
<text text-anchor="start" x="135.5" y="-78.9" font-family="Helvetica,sans-Serif" font-weight="bold" font-size="12.00">directors</text>
<polygon fill="White" stroke="transparent" points="99,-51.5 99,-70.5 181,-70.5 181,-51.5 99,-51.5"/>
<polygon fill="none" stroke="black" points="99,-51.5 99,-70.5 181,-70.5 181,-51.5 99,-51.5"/>
<text text-anchor="start" x="102" y="-57.9" font-family="Helvetica,sans-Serif" font-size="12.00">id</text>
<polygon fill="White" stroke="transparent" points="181,-51.5 181,-70.5 240,-70.5 240,-51.5 181,-51.5"/>
<polygon fill="none" stroke="black" points="181,-51.5 181,-70.5 240,-70.5 240,-51.5 181,-51.5"/>
<text text-anchor="start" x="184" y="-57.9" font-family="Helvetica,sans-Serif" font-size="12.00">int</text>
<polygon fill="White" stroke="transparent" points="99,-32.5 99,-51.5 181,-51.5 181,-32.5 99,-32.5"/>
<polygon fill="none" stroke="black" points="99,-32.5 99,-51.5 181,-51.5 181,-32.5 99,-32.5"/>
<text text-anchor="start" x="102" y="-38.9" font-family="Helvetica,sans-Serif" font-size="12.00">first_name</text>
<polygon fill="White" stroke="transparent" points="181,-32.5 181,-51.5 240,-51.5 240,-32.5 181,-32.5"/>
<polygon fill="none" stroke="black" points="181,-32.5 181,-51.5 240,-51.5 240,-32.5 181,-32.5"/>
<text text-anchor="start" x="184" y="-38.9" font-family="Helvetica,sans-Serif" font-size="12.00">varchar</text>
<polygon fill="White" stroke="transparent" points="99,-13.5 99,-32.5 181,-32.5 181,-13.5 99,-13.5"/>
<polygon fill="none" stroke="black" points="99,-13.5 99,-32.5 181,-32.5 181,-13.5 99,-13.5"/>
<text text-anchor="start" x="102" y="-19.9" font-family="Helvetica,sans-Serif" font-size="12.00">last_name</text>
<polygon fill="White" stroke="transparent" points="181,-13.5 181,-32.5 240,-32.5 240,-13.5 181,-13.5"/>
<polygon fill="none" stroke="black" points="181,-13.5 181,-32.5 240,-32.5 240,-13.5 181,-13.5"/>
<text text-anchor="start" x="184" y="-19.9" font-family="Helvetica,sans-Serif" font-size="12.00">varchar</text>
</g>
<!-- directors_genres -->
<g id="node2" class="node">
<title>directors_genres</title>
<polygon fill="Lavender" stroke="transparent" points="8,-204 8,-227 156,-227 156,-204 8,-204"/>
<polygon fill="none" stroke="black" points="8,-204 8,-227 156,-227 156,-204 8,-204"/>
<text text-anchor="start" x="21.5" y="-212.4" font-family="Helvetica,sans-Serif" font-weight="bold" font-size="12.00">directors_genres</text>
<polygon fill="White" stroke="transparent" points="8,-185 8,-204 97,-204 97,-185 8,-185"/>
<polygon fill="none" stroke="black" points="8,-185 8,-204 97,-204 97,-185 8,-185"/>
<text text-anchor="start" x="11" y="-191.4" font-family="Helvetica,sans-Serif" font-size="12.00">director_id</text>
<polygon fill="White" stroke="transparent" points="97,-185 97,-204 156,-204 156,-185 97,-185"/>
<polygon fill="none" stroke="black" points="97,-185 97,-204 156,-204 156,-185 97,-185"/>
<text text-anchor="start" x="100" y="-191.4" font-family="Helvetica,sans-Serif" font-size="12.00">int</text>
<polygon fill="White" stroke="transparent" points="8,-166 8,-185 97,-185 97,-166 8,-166"/>
<polygon fill="none" stroke="black" points="8,-166 8,-185 97,-185 97,-166 8,-166"/>
<text text-anchor="start" x="11" y="-172.4" font-family="Helvetica,sans-Serif" font-size="12.00">genre</text>
<polygon fill="White" stroke="transparent" points="97,-166 97,-185 156,-185 156,-166 97,-166"/>
<polygon fill="none" stroke="black" points="97,-166 97,-185 156,-185 156,-166 97,-166"/>
<text text-anchor="start" x="100" y="-172.4" font-family="Helvetica,sans-Serif" font-size="12.00">varchar</text>
<polygon fill="White" stroke="transparent" points="8,-147 8,-166 97,-166 97,-147 8,-147"/>
<polygon fill="none" stroke="black" points="8,-147 8,-166 97,-166 97,-147 8,-147"/>
<text text-anchor="start" x="11" y="-153.4" font-family="Helvetica,sans-Serif" font-size="12.00">prob</text>
<polygon fill="White" stroke="transparent" points="97,-147 97,-166 156,-166 156,-147 97,-147"/>
<polygon fill="none" stroke="black" points="97,-147 97,-166 156,-166 156,-147 97,-147"/>
<text text-anchor="start" x="100" y="-153.4" font-family="Helvetica,sans-Serif" font-size="12.00">float</text>
</g>
<!-- directors_genres&#45;&gt;directors -->
<g id="edge1" class="edge">
<title>directors_genres&#45;&gt;directors</title>
<path fill="none" stroke="black" d="M127.25,-142.92C127.25,-142.92 127.25,-107.54 127.25,-107.54"/>
<polygon fill="black" stroke="black" points="130.75,-107.54 127.25,-97.54 123.75,-107.54 130.75,-107.54"/>
</g>
<!-- movies_directors -->
<g id="node3" class="node">
<title>movies_directors</title>
<polygon fill="Lavender" stroke="transparent" points="191,-194 191,-217 322,-217 322,-194 191,-194"/>
<polygon fill="none" stroke="black" points="191,-194 191,-217 322,-217 322,-194 191,-194"/>
<text text-anchor="start" x="196" y="-202.4" font-family="Helvetica,sans-Serif" font-weight="bold" font-size="12.00">movies_directors</text>
<polygon fill="White" stroke="transparent" points="191,-175 191,-194 286,-194 286,-175 191,-175"/>
<polygon fill="none" stroke="black" points="191,-175 191,-194 286,-194 286,-175 191,-175"/>
<text text-anchor="start" x="194" y="-181.4" font-family="Helvetica,sans-Serif" font-size="12.00">director_id</text>
<polygon fill="White" stroke="transparent" points="286,-175 286,-194 322,-194 322,-175 286,-175"/>
<polygon fill="none" stroke="black" points="286,-175 286,-194 322,-194 322,-175 286,-175"/>
<text text-anchor="start" x="289" y="-181.4" font-family="Helvetica,sans-Serif" font-size="12.00">int</text>
<polygon fill="White" stroke="transparent" points="191,-156 191,-175 286,-175 286,-156 191,-156"/>
<polygon fill="none" stroke="black" points="191,-156 191,-175 286,-175 286,-156 191,-156"/>
<text text-anchor="start" x="194" y="-162.4" font-family="Helvetica,sans-Serif" font-size="12.00">movie_id</text>
<polygon fill="White" stroke="transparent" points="286,-156 286,-175 322,-175 322,-156 286,-156"/>
<polygon fill="none" stroke="black" points="286,-156 286,-175 322,-175 322,-156 286,-156"/>
<text text-anchor="start" x="289" y="-162.4" font-family="Helvetica,sans-Serif" font-size="12.00">int</text>
</g>
<!-- movies_directors&#45;&gt;directors -->
<g id="edge2" class="edge">
<title>movies_directors&#45;&gt;directors</title>
<path fill="none" stroke="black" d="M215,-152.27C215,-152.27 215,-107.63 215,-107.63"/>
<polygon fill="black" stroke="black" points="218.5,-107.63 215,-97.63 211.5,-107.63 218.5,-107.63"/>
</g>
<!-- movies -->
<g id="node4" class="node">
<title>movies</title>
<polygon fill="Lavender" stroke="transparent" points="371,-79.5 371,-102.5 467,-102.5 467,-79.5 371,-79.5"/>
<polygon fill="none" stroke="black" points="371,-79.5 371,-102.5 467,-102.5 467,-79.5 371,-79.5"/>
<text text-anchor="start" x="396" y="-87.9" font-family="Helvetica,sans-Serif" font-weight="bold" font-size="12.00">movies</text>
<polygon fill="White" stroke="transparent" points="371,-60.5 371,-79.5 408,-79.5 408,-60.5 371,-60.5"/>
<polygon fill="none" stroke="black" points="371,-60.5 371,-79.5 408,-79.5 408,-60.5 371,-60.5"/>
<text text-anchor="start" x="374" y="-66.9" font-family="Helvetica,sans-Serif" font-size="12.00">id</text>
<polygon fill="White" stroke="transparent" points="408,-60.5 408,-79.5 467,-79.5 467,-60.5 408,-60.5"/>
<polygon fill="none" stroke="black" points="408,-60.5 408,-79.5 467,-79.5 467,-60.5 408,-60.5"/>
<text text-anchor="start" x="411" y="-66.9" font-family="Helvetica,sans-Serif" font-size="12.00">int</text>
<polygon fill="White" stroke="transparent" points="371,-41.5 371,-60.5 408,-60.5 408,-41.5 371,-41.5"/>
<polygon fill="none" stroke="black" points="371,-41.5 371,-60.5 408,-60.5 408,-41.5 371,-41.5"/>
<text text-anchor="start" x="374" y="-47.9" font-family="Helvetica,sans-Serif" font-size="12.00">name</text>
<polygon fill="White" stroke="transparent" points="408,-41.5 408,-60.5 467,-60.5 467,-41.5 408,-41.5"/>
<polygon fill="none" stroke="black" points="408,-41.5 408,-60.5 467,-60.5 467,-41.5 408,-41.5"/>
<text text-anchor="start" x="411" y="-47.9" font-family="Helvetica,sans-Serif" font-size="12.00">varchar</text>
<polygon fill="White" stroke="transparent" points="371,-22.5 371,-41.5 408,-41.5 408,-22.5 371,-22.5"/>
<polygon fill="none" stroke="black" points="371,-22.5 371,-41.5 408,-41.5 408,-22.5 371,-22.5"/>
<text text-anchor="start" x="374" y="-28.9" font-family="Helvetica,sans-Serif" font-size="12.00">year</text>
<polygon fill="White" stroke="transparent" points="408,-22.5 408,-41.5 467,-41.5 467,-22.5 408,-22.5"/>
<polygon fill="none" stroke="black" points="408,-22.5 408,-41.5 467,-41.5 467,-22.5 408,-22.5"/>
<text text-anchor="start" x="411" y="-28.9" font-family="Helvetica,sans-Serif" font-size="12.00">int</text>
<polygon fill="White" stroke="transparent" points="371,-3.5 371,-22.5 408,-22.5 408,-3.5 371,-3.5"/>
<polygon fill="none" stroke="black" points="371,-3.5 371,-22.5 408,-22.5 408,-3.5 371,-3.5"/>
<text text-anchor="start" x="374" y="-9.9" font-family="Helvetica,sans-Serif" font-size="12.00">rank</text>
<polygon fill="White" stroke="transparent" points="408,-3.5 408,-22.5 467,-22.5 467,-3.5 408,-3.5"/>
<polygon fill="none" stroke="black" points="408,-3.5 408,-22.5 467,-22.5 467,-3.5 408,-3.5"/>
<text text-anchor="start" x="411" y="-9.9" font-family="Helvetica,sans-Serif" font-size="12.00">float</text>
</g>
<!-- movies_directors&#45;&gt;movies -->
<g id="edge3" class="edge">
<title>movies_directors&#45;&gt;movies</title>
<path fill="none" stroke="black" d="M288.5,-152.43C288.5,-128.89 288.5,-102 288.5,-102 288.5,-102 352.9,-102 352.9,-102"/>
<polygon fill="black" stroke="black" points="352.9,-105.5 362.9,-102 352.9,-98.5 352.9,-105.5"/>
</g>
<!-- movies_genres -->
<g id="node5" class="node">
<title>movies_genres</title>
<polygon fill="Lavender" stroke="transparent" points="356,-194 356,-217 482,-217 482,-194 356,-194"/>
<polygon fill="none" stroke="black" points="356,-194 356,-217 482,-217 482,-194 356,-194"/>
<text text-anchor="start" x="370" y="-202.4" font-family="Helvetica,sans-Serif" font-weight="bold" font-size="12.00">movies_genres</text>
<polygon fill="White" stroke="transparent" points="356,-175 356,-194 423,-194 423,-175 356,-175"/>
<polygon fill="none" stroke="black" points="356,-175 356,-194 423,-194 423,-175 356,-175"/>
<text text-anchor="start" x="359" y="-181.4" font-family="Helvetica,sans-Serif" font-size="12.00">movie_id</text>
<polygon fill="White" stroke="transparent" points="423,-175 423,-194 482,-194 482,-175 423,-175"/>
<polygon fill="none" stroke="black" points="423,-175 423,-194 482,-194 482,-175 423,-175"/>
<text text-anchor="start" x="426" y="-181.4" font-family="Helvetica,sans-Serif" font-size="12.00">int</text>
<polygon fill="White" stroke="transparent" points="356,-156 356,-175 423,-175 423,-156 356,-156"/>
<polygon fill="none" stroke="black" points="356,-156 356,-175 423,-175 423,-156 356,-156"/>
<text text-anchor="start" x="359" y="-162.4" font-family="Helvetica,sans-Serif" font-size="12.00">genre</text>
<polygon fill="White" stroke="transparent" points="423,-156 423,-175 482,-175 482,-156 423,-156"/>
<polygon fill="none" stroke="black" points="423,-156 423,-175 482,-175 482,-156 423,-156"/>
<text text-anchor="start" x="426" y="-162.4" font-family="Helvetica,sans-Serif" font-size="12.00">varchar</text>
</g>
<!-- movies_genres&#45;&gt;movies -->
<g id="edge4" class="edge">
<title>movies_genres&#45;&gt;movies</title>
<path fill="none" stroke="black" d="M400.33,-152.27C400.33,-152.27 400.33,-117.2 400.33,-117.2"/>
<polygon fill="black" stroke="black" points="403.83,-117.2 400.33,-107.2 396.83,-117.2 403.83,-117.2"/>
</g>
<!-- actors -->
<g id="node6" class="node">
<title>actors</title>
<polygon fill="Lavender" stroke="transparent" points="509,-79.5 509,-102.5 650,-102.5 650,-79.5 509,-79.5"/>
<polygon fill="none" stroke="black" points="509,-79.5 509,-102.5 650,-102.5 650,-79.5 509,-79.5"/>
<text text-anchor="start" x="556.5" y="-87.9" font-family="Helvetica,sans-Serif" font-weight="bold" font-size="12.00">actors</text>
<polygon fill="White" stroke="transparent" points="509,-60.5 509,-79.5 591,-79.5 591,-60.5 509,-60.5"/>
<polygon fill="none" stroke="black" points="509,-60.5 509,-79.5 591,-79.5 591,-60.5 509,-60.5"/>
<text text-anchor="start" x="512" y="-66.9" font-family="Helvetica,sans-Serif" font-size="12.00">id</text>
<polygon fill="White" stroke="transparent" points="591,-60.5 591,-79.5 650,-79.5 650,-60.5 591,-60.5"/>
<polygon fill="none" stroke="black" points="591,-60.5 591,-79.5 650,-79.5 650,-60.5 591,-60.5"/>
<text text-anchor="start" x="594" y="-66.9" font-family="Helvetica,sans-Serif" font-size="12.00">int</text>
<polygon fill="White" stroke="transparent" points="509,-41.5 509,-60.5 591,-60.5 591,-41.5 509,-41.5"/>
<polygon fill="none" stroke="black" points="509,-41.5 509,-60.5 591,-60.5 591,-41.5 509,-41.5"/>
<text text-anchor="start" x="512" y="-47.9" font-family="Helvetica,sans-Serif" font-size="12.00">first_name</text>
<polygon fill="White" stroke="transparent" points="591,-41.5 591,-60.5 650,-60.5 650,-41.5 591,-41.5"/>
<polygon fill="none" stroke="black" points="591,-41.5 591,-60.5 650,-60.5 650,-41.5 591,-41.5"/>
<text text-anchor="start" x="594" y="-47.9" font-family="Helvetica,sans-Serif" font-size="12.00">varchar</text>
<polygon fill="White" stroke="transparent" points="509,-22.5 509,-41.5 591,-41.5 591,-22.5 509,-22.5"/>
<polygon fill="none" stroke="black" points="509,-22.5 509,-41.5 591,-41.5 591,-22.5 509,-22.5"/>
<text text-anchor="start" x="512" y="-28.9" font-family="Helvetica,sans-Serif" font-size="12.00">last_name</text>
<polygon fill="White" stroke="transparent" points="591,-22.5 591,-41.5 650,-41.5 650,-22.5 591,-22.5"/>
<polygon fill="none" stroke="black" points="591,-22.5 591,-41.5 650,-41.5 650,-22.5 591,-22.5"/>
<text text-anchor="start" x="594" y="-28.9" font-family="Helvetica,sans-Serif" font-size="12.00">varchar</text>
<polygon fill="White" stroke="transparent" points="509,-3.5 509,-22.5 591,-22.5 591,-3.5 509,-3.5"/>
<polygon fill="none" stroke="black" points="509,-3.5 509,-22.5 591,-22.5 591,-3.5 509,-3.5"/>
<text text-anchor="start" x="512" y="-9.9" font-family="Helvetica,sans-Serif" font-size="12.00">gender</text>
<polygon fill="White" stroke="transparent" points="591,-3.5 591,-22.5 650,-22.5 650,-3.5 591,-3.5"/>
<polygon fill="none" stroke="black" points="591,-3.5 591,-22.5 650,-22.5 650,-3.5 591,-3.5"/>
<text text-anchor="start" x="594" y="-9.9" font-family="Helvetica,sans-Serif" font-size="12.00">char</text>
</g>
<!-- roles -->
<g id="node7" class="node">
<title>roles</title>
<polygon fill="Lavender" stroke="transparent" points="516,-204 516,-227 642,-227 642,-204 516,-204"/>
<polygon fill="none" stroke="black" points="516,-204 516,-227 642,-227 642,-204 516,-204"/>
<text text-anchor="start" x="560" y="-212.4" font-family="Helvetica,sans-Serif" font-weight="bold" font-size="12.00">roles</text>
<polygon fill="White" stroke="transparent" points="516,-185 516,-204 583,-204 583,-185 516,-185"/>
<polygon fill="none" stroke="black" points="516,-185 516,-204 583,-204 583,-185 516,-185"/>
<text text-anchor="start" x="519" y="-191.4" font-family="Helvetica,sans-Serif" font-size="12.00">actor_id</text>
<polygon fill="White" stroke="transparent" points="583,-185 583,-204 642,-204 642,-185 583,-185"/>
<polygon fill="none" stroke="black" points="583,-185 583,-204 642,-204 642,-185 583,-185"/>
<text text-anchor="start" x="586" y="-191.4" font-family="Helvetica,sans-Serif" font-size="12.00">int</text>
<polygon fill="White" stroke="transparent" points="516,-166 516,-185 583,-185 583,-166 516,-166"/>
<polygon fill="none" stroke="black" points="516,-166 516,-185 583,-185 583,-166 516,-166"/>
<text text-anchor="start" x="519" y="-172.4" font-family="Helvetica,sans-Serif" font-size="12.00">movie_id</text>
<polygon fill="White" stroke="transparent" points="583,-166 583,-185 642,-185 642,-166 583,-166"/>
<polygon fill="none" stroke="black" points="583,-166 583,-185 642,-185 642,-166 583,-166"/>
<text text-anchor="start" x="586" y="-172.4" font-family="Helvetica,sans-Serif" font-size="12.00">int</text>
<polygon fill="White" stroke="transparent" points="516,-147 516,-166 583,-166 583,-147 516,-147"/>
<polygon fill="none" stroke="black" points="516,-147 516,-166 583,-166 583,-147 516,-147"/>
<text text-anchor="start" x="519" y="-153.4" font-family="Helvetica,sans-Serif" font-size="12.00">role</text>
<polygon fill="White" stroke="transparent" points="583,-147 583,-166 642,-166 642,-147 583,-147"/>
<polygon fill="none" stroke="black" points="583,-147 583,-166 642,-166 642,-147 583,-147"/>
<text text-anchor="start" x="586" y="-153.4" font-family="Helvetica,sans-Serif" font-size="12.00">varchar</text>
</g>
<!-- roles&#45;&gt;movies -->
<g id="edge6" class="edge">
<title>roles&#45;&gt;movies</title>
<path fill="none" stroke="black" d="M507.92,-147C472.72,-147 437.67,-147 437.67,-147 437.67,-147 437.67,-117.08 437.67,-117.08"/>
<polygon fill="black" stroke="black" points="441.17,-117.08 437.67,-107.08 434.17,-117.08 441.17,-117.08"/>
</g>
<!-- roles&#45;&gt;actors -->
<g id="edge5" class="edge">
<title>roles&#45;&gt;actors</title>
<path fill="none" stroke="black" d="M579,-142.92C579,-142.92 579,-117.31 579,-117.31"/>
<polygon fill="black" stroke="black" points="582.5,-117.31 579,-107.31 575.5,-117.31 582.5,-117.31"/>
</g>
</g>
</svg>
